<svg width="20" height="20" viewBox="0 0 20 20" fill="none" xmlns="http://www.w3.org/2000/svg">
<path d="M15.18 17.1665C13.9095 18.3291 12.2849 18.9104 10.3061 18.9104C7.85759 18.9104 5.93267 18.1251 4.53133 16.5543C3.12999 14.9759 2.42932 12.8123 2.42932 10.0635C2.42932 7.09145 3.22624 4.8008 4.82007 3.19156C6.20601 1.79022 7.96924 1.08955 10.1097 1.08955C12.974 1.08955 15.0683 2.02891 16.3927 3.90763C17.1241 4.96249 17.5168 6.02119 17.5707 7.08375H14.0135C13.7825 6.26758 13.4861 5.65161 13.1242 5.23583C12.4774 4.49666 11.5188 4.12707 10.2483 4.12707C8.95479 4.12707 7.93459 4.65065 7.18772 5.69781C6.44085 6.73726 6.06742 8.21175 6.06742 10.1213C6.06742 12.0308 6.4601 13.4629 7.24547 14.4177C8.03853 15.3647 9.04334 15.8383 10.2599 15.8383C11.5072 15.8383 12.4581 15.4302 13.1126 14.614C13.4745 14.1751 13.7748 13.5168 14.0135 12.6391H17.5361C17.2281 14.4947 16.4427 16.0038 15.18 17.1665Z" fill="#333333"/>
</svg>
