<svg width="68" height="77" viewBox="0 0 68 77" fill="none" xmlns="http://www.w3.org/2000/svg">
<rect width="68" height="77" fill="white"/>
<rect x="8" y="29" width="14" height="20" rx="1" stroke="#C4C4C4" stroke-width="2"/>
<rect x="8" y="5" width="14" height="20" rx="1" stroke="#C4C4C4" stroke-width="2"/>
<rect x="8" y="53" width="14" height="20" rx="1" stroke="#C4C4C4" stroke-width="2"/>
<rect x="27" y="29" width="14" height="20" rx="1" stroke="#C4C4C4" stroke-width="2"/>
<rect x="27" y="5" width="14" height="20" rx="1" stroke="#C4C4C4" stroke-width="2"/>
<rect x="27" y="53" width="14" height="20" rx="1" stroke="#C4C4C4" stroke-width="2"/>
<rect x="46" y="29" width="14" height="20" rx="1" stroke="#C4C4C4" stroke-width="2"/>
<rect x="46" y="5" width="14" height="20" rx="1" stroke="#C4C4C4" stroke-width="2"/>
<rect x="46" y="53" width="14" height="20" rx="1" stroke="#C4C4C4" stroke-width="2"/>
<path d="M7 30C7 28.8954 7.89543 28 9 28H21C22.1046 28 23 28.8954 23 30V38H7V30Z" fill="#C4C4C4"/>
<path d="M7 6C7 4.89543 7.89543 4 9 4H21C22.1046 4 23 4.89543 23 6V14H7V6Z" fill="#C4C4C4"/>
<path d="M7 54C7 52.8954 7.89543 52 9 52H21C22.1046 52 23 52.8954 23 54V62H7V54Z" fill="#C4C4C4"/>
<path d="M26 30C26 28.8954 26.8954 28 28 28H40C41.1046 28 42 28.8954 42 30V38H26V30Z" fill="#C4C4C4"/>
<path d="M26 6C26 4.89543 26.8954 4 28 4H40C41.1046 4 42 4.89543 42 6V14H26V6Z" fill="#C4C4C4"/>
<path d="M26 54C26 52.8954 26.8954 52 28 52H40C41.1046 52 42 52.8954 42 54V62H26V54Z" fill="#C4C4C4"/>
<path d="M45 30C45 28.8954 45.8954 28 47 28H59C60.1046 28 61 28.8954 61 30V38H45V30Z" fill="#C4C4C4"/>
<path d="M45 6C45 4.89543 45.8954 4 47 4H59C60.1046 4 61 4.89543 61 6V14H45V6Z" fill="#C4C4C4"/>
<path d="M45 54C45 52.8954 45.8954 52 47 52H59C60.1046 52 61 52.8954 61 54V62H45V54Z" fill="#C4C4C4"/>
<rect x="11" y="40" width="8" height="2" fill="#A1A1A1"/>
<rect x="11" y="16" width="8" height="2" fill="#A1A1A1"/>
<rect x="11" y="64" width="8" height="2" fill="#A1A1A1"/>
<rect x="30" y="40" width="8" height="2" fill="#A1A1A1"/>
<rect x="30" y="16" width="8" height="2" fill="#A1A1A1"/>
<rect x="30" y="64" width="8" height="2" fill="#A1A1A1"/>
<rect x="49" y="40" width="8" height="2" fill="#A1A1A1"/>
<rect x="49" y="16" width="8" height="2" fill="#A1A1A1"/>
<rect x="49" y="64" width="8" height="2" fill="#A1A1A1"/>
<rect x="11" y="44" width="5" height="2" fill="#A1A1A1"/>
<rect x="11" y="19" width="5" height="2" fill="#A1A1A1"/>
<rect x="11" y="68" width="5" height="2" fill="#A1A1A1"/>
<rect x="30" y="44" width="5" height="2" fill="#A1A1A1"/>
<rect x="30" y="19" width="5" height="2" fill="#A1A1A1"/>
<rect x="30" y="68" width="5" height="2" fill="#A1A1A1"/>
<rect x="49" y="44" width="5" height="2" fill="#A1A1A1"/>
<rect x="49" y="19" width="5" height="2" fill="#A1A1A1"/>
<rect x="49" y="68" width="5" height="2" fill="#A1A1A1"/>
</svg>
